HIERARCHY
ROOT Hips
{
  OFFSET 5.84602e-005 68.8428 3.50346
  CHANNELS 6 Xposition Yposition Zposition Zrotation Xrotation Yrotation
  JOINT Spine
  {
    OFFSET 0 8.597 -4.6522
    CHANNELS 3 Zrotation Xrotation Yrotation
    JOINT Spine1
    {
      OFFSET 0 7.8454 0.4098
      CHANNELS 3 Zrotation Xrotation Yrotation
      JOINT Spine2
      {
        OFFSET 0 9.7078 -2.1609
        CHANNELS 3 Zrotation Xrotation Yrotation
        JOINT Neck
        {
          OFFSET 0 21.8761 -0.4549
          CHANNELS 3 Zrotation Xrotation Yrotation
          JOINT Head
          {
            OFFSET 0 12.3537 3.3602
            CHANNELS 3 Zrotation Xrotation Yrotation
            End Site
            {
              OFFSET 0.0001 18.9506 0.5657
            }
          }
        }
        JOINT LeftShoulder
        {
          OFFSET 2.2086 21.1115 7.2329
          CHANNELS 3 Zrotation Xrotation Yrotation
          JOINT LeftArm
          {
            OFFSET 13.1193 3.0282 -4.8998
            CHANNELS 3 Zrotation Xrotation Yrotation
            JOINT LeftForeArm
            {
              OFFSET 27.4081 -0.0973053 -0.2375
              CHANNELS 3 Zrotation Xrotation Yrotation
              JOINT LeftHand
              {
                OFFSET 22.8641 0.0662994 -0.1369
                CHANNELS 3 Zrotation Xrotation Yrotation
                JOINT LeftHandIndex1
                {
                  OFFSET 8.8614 0.775009 2.4612
                  CHANNELS 3 Zrotation Xrotation Yrotation
                  JOINT LeftHandIndex2
                  {
                    OFFSET 3.3146 -0.808304 0.5841
                    CHANNELS 3 Zrotation Xrotation Yrotation
                    JOINT LeftHandIndex3
                    {
                      OFFSET 2.2628 -0.552002 0.3989
                      CHANNELS 3 Zrotation Xrotation Yrotation
                      End Site
                      {
                        OFFSET 1.6102 -0.4807 0.2612
                      }
                    }
                  }
                }
                JOINT LeftHandMiddle1
                {
                  OFFSET 8.9937 0.895004 0.2143
                  CHANNELS 3 Zrotation Xrotation Yrotation
                  JOINT LeftHandMiddle2
                  {
                    OFFSET 4.0984 0.0113983 -0.0242
                    CHANNELS 3 Zrotation Xrotation Yrotation
                    JOINT LeftHandMiddle3
                    {
                      OFFSET 2.2716 0.00689697 -0.0138001
                      CHANNELS 3 Zrotation Xrotation Yrotation
                      End Site
                      {
                        OFFSET 2.0404 -0.1441 0.0027
                      }
                    }
                  }
                }
                JOINT LeftHandRing1
                {
                  OFFSET 8.5234 0.597198 -2.0164
                  CHANNELS 3 Zrotation Xrotation Yrotation
                  JOINT LeftHandRing2
                  {
                    OFFSET 3.7188 -0.188293 -0.2328
                    CHANNELS 3 Zrotation Xrotation Yrotation
                    JOINT LeftHandRing3
                    {
                      OFFSET 2.1191 -0.106598 -0.1332
                      CHANNELS 3 Zrotation Xrotation Yrotation
                      End Site
                      {
                        OFFSET 1.8737 -0.2304 -0.0886
                      }
                    }
                  }
                }
                JOINT LeftHandPinky1
                {
                  OFFSET 7.9094 -0.601089 -3.4825
                  CHANNELS 3 Zrotation Xrotation Yrotation
                  JOINT LeftHandPinky2
                  {
                    OFFSET 2.2874 -0.477005 -0.6314
                    CHANNELS 3 Zrotation Xrotation Yrotation
                    JOINT LeftHandPinky3
                    {
                      OFFSET 1.6774 -0.349396 -0.4633
                      CHANNELS 3 Zrotation Xrotation Yrotation
                      End Site
                      {
                        OFFSET 1.4888 -0.4091 -0.3416
                      }
                    }
                  }
                }
                JOINT LeftHandThumb1
                {
                  OFFSET 1.833 -1.3875 1.3896
                  CHANNELS 3 Zrotation Xrotation Yrotation
                  JOINT LeftHandThumb2
                  {
                    OFFSET 3.4129 -1.121 2.5732
                    CHANNELS 3 Zrotation Xrotation Yrotation
                    JOINT LeftHandThumb3
                    {
                      OFFSET 2.2474 -0.804199 1.6192
                      CHANNELS 3 Zrotation Xrotation Yrotation
                      End Site
                      {
                        OFFSET 1.6527 -0.5689 1.1317
                      }
                    }
                  }
                }
              }
            }
          }
        }
        JOINT RightShoulder
        {
          OFFSET -2.2086 21.1115 7.2329
          CHANNELS 3 Zrotation Xrotation Yrotation
          JOINT RightArm
          {
            OFFSET -13.1216 3.0287 -4.9007
            CHANNELS 3 Zrotation Xrotation Yrotation
            JOINT RightForeArm
            {
              OFFSET -27.4081 -0.0973053 -0.2375
              CHANNELS 3 Zrotation Xrotation Yrotation
              JOINT RightHand
              {
                OFFSET -22.8641 0.0664063 -0.1369
                CHANNELS 3 Zrotation Xrotation Yrotation
                JOINT RightHandIndex1
                {
                  OFFSET -8.8614 0.774994 2.4612
                  CHANNELS 3 Zrotation Xrotation Yrotation
                  JOINT RightHandIndex2
                  {
                    OFFSET -3.3146 -0.808304 0.5841
                    CHANNELS 3 Zrotation Xrotation Yrotation
                    JOINT RightHandIndex3
                    {
                      OFFSET -2.2628 -0.552002 0.3989
                      CHANNELS 3 Zrotation Xrotation Yrotation
                      End Site
                      {
                        OFFSET -1.6102 -0.4807 0.2612
                      }
                    }
                  }
                }
                JOINT RightHandMiddle1
                {
                  OFFSET -8.9937 0.894989 0.2143
                  CHANNELS 3 Zrotation Xrotation Yrotation
                  JOINT RightHandMiddle2
                  {
                    OFFSET -4.0984 0.0113983 -0.0242
                    CHANNELS 3 Zrotation Xrotation Yrotation
                    JOINT RightHandMiddle3
                    {
                      OFFSET -2.2716 0.00691223 -0.0138001
                      CHANNELS 3 Zrotation Xrotation Yrotation
                      End Site
                      {
                        OFFSET -2.0404 -0.1441 0.0027
                      }
                    }
                  }
                }
                JOINT RightHandRing1
                {
                  OFFSET -8.5234 0.597198 -2.0164
                  CHANNELS 3 Zrotation Xrotation Yrotation
                  JOINT RightHandRing2
                  {
                    OFFSET -3.7188 -0.188309 -0.2328
                    CHANNELS 3 Zrotation Xrotation Yrotation
                    JOINT RightHandRing3
                    {
                      OFFSET -2.1191 -0.106598 -0.1332
                      CHANNELS 3 Zrotation Xrotation Yrotation
                      End Site
                      {
                        OFFSET -1.8737 -0.2304 -0.0886
                      }
                    }
                  }
                }
                JOINT RightHandPinky1
                {
                  OFFSET -7.9094 -0.601105 -3.4825
                  CHANNELS 3 Zrotation Xrotation Yrotation
                  JOINT RightHandPinky2
                  {
                    OFFSET -2.2874 -0.477005 -0.6314
                    CHANNELS 3 Zrotation Xrotation Yrotation
                    JOINT RightHandPinky3
                    {
                      OFFSET -1.6774 -0.349396 -0.4633
                      CHANNELS 3 Zrotation Xrotation Yrotation
                      End Site
                      {
                        OFFSET -1.4888 -0.4091 -0.3416
                      }
                    }
                  }
                }
                JOINT RightHandThumb1
                {
                  OFFSET -1.833 -1.38751 1.3896
                  CHANNELS 3 Zrotation Xrotation Yrotation
                  JOINT RightHandThumb2
                  {
                    OFFSET -3.41299 -1.12099 2.5732
                    CHANNELS 3 Zrotation Xrotation Yrotation
                    JOINT RightHandThumb3
                    {
                      OFFSET -2.24741 -0.804108 1.6192
                      CHANNELS 3 Zrotation Xrotation Yrotation
                      End Site
                      {
                        OFFSET -1.6527 -0.5689 1.1317
                      }
                    }
                  }
                }
              }
            }
          }
        }
      }
    }
  }
  JOINT RightUpLeg
  {
    OFFSET -9.1966 3.8861 -0.7581
    CHANNELS 3 Zrotation Xrotation Yrotation
    JOINT RightLeg
    {
      OFFSET -0.7359 -41.0265 0
      CHANNELS 3 Zrotation Xrotation Yrotation
      JOINT RightFoot
      {
        OFFSET 0 -40.2855 0
        CHANNELS 3 Zrotation Xrotation Yrotation
        JOINT RightToeBase
        {
          OFFSET 0 -5.6122 11.7359
          CHANNELS 3 Zrotation Xrotation Yrotation
          End Site
          {
            OFFSET 0 0 7.8731
          }
        }
      }
    }
  }
  JOINT LeftUpLeg
  {
    OFFSET 9.1965 3.8864 -0.7581
    CHANNELS 3 Zrotation Xrotation Yrotation
    JOINT LeftLeg
    {
      OFFSET 0.7359 -41.0268 0
      CHANNELS 3 Zrotation Xrotation Yrotation
      JOINT LeftFoot
      {
        OFFSET 0 -40.2855 0
        CHANNELS 3 Zrotation Xrotation Yrotation
        JOINT LeftToeBase
        {
          OFFSET 0 -5.6122 11.7359
          CHANNELS 3 Zrotation Xrotation Yrotation
          End Site
          {
            OFFSET 0 0 7.8731
          }
        }
      }
    }
  }
}
MOTION
Frames:	4
Frame Time:	0.0333333
5.84602e-005 68.8428 3.50346 0 0 -0 0 0 -0 0 0 -0 0 0 -0 0 0 -0 0 0 -0 0 0 -0 0 0 -0 0 0 -0 0 0 -0 0 0 -0 0 0 -0 0 0 -0 0 0 -0 -0.0146107 -8.87603e-005 -2.63497e-007 2.99804e-018 -2.42657e-020 -1.42182e-022 0 0 -0 -0.0187562 -0.001176 5.858e-005 5.06224e-018 3.88251e-019 1.21329e-020 0 0 -0 -0.012269 -0.00324817 0.000675346 -1.74678e-018 3.88251e-019 -0 0 0 -0 0 0 -0 0 0 -0 0 0 -0 0 0 -0 0 0 -0 0 0 -0 0 0 -0 0 0 -0 0 0 -0 0 0 -0 0.0149955 -9.10982e-005 2.64101e-007 -9.69331e-018 1.21329e-020 -4.7394e-023 0 0 -0 0.0189956 -0.00119102 -5.96516e-005 -5.41541e-019 0 2.42657e-020 0 0 -0 0.0122698 -0.00324857 -0.000673756 -2.00796e-019 0 -1.94126e-019 0 0 -0 0 0 -0 0 0 -0 3.39842 1.33031 -0.0637918 -5.65207e-008 0.834868 -0.000436188 -3.39935 -2.16518 -0.0642563 -8.89002e-024 -1.18485e-023 -1.48106e-024 -3.39844 1.35642 0.0640283 -3.18788e-007 0.782166 -0.000588827 3.39931 -2.13858 0.0634662 1.1399e-023 0 -0 
-2.06552 7.04577 26.878 -8.60975 36.9655 -165.867 -0.357821 16.1195 -0.0184894 -0.758151 32.2386 0.0779077 -0.758149 32.2386 0.0779026 -2.24133e-005 16.6391 1.23216e-005 -1.40506e-007 11.4347 4.98105e-007 14.7144 2.95821 -23.0309 -57.8149 6.72734 -33.5216 -7.14663 1.00812 0.152694 -2.36631 -12.5749 -24.0539 7.95139e-016 3.18055e-015 -0 7.95139e-016 3.18055e-015 -0 1.59028e-015 3.18055e-015 -1.59028e-015 7.95139e-016 3.18055e-015 -0 -0.0145816 -9.07697e-005 -1.21332e-006 -1.11319e-014 0 -4.77083e-015 7.95139e-016 3.18055e-015 -0 -0.0187342 -0.00117427 5.75257e-005 0 6.36111e-015 -0 7.95139e-016 3.18055e-015 -0 -0.0123185 -0.00326187 0.000679266 -7.95139e-016 0 -3.18055e-015 7.95139e-016 3.18055e-015 -0 7.95139e-016 3.18055e-015 -0 1.59028e-015 3.18055e-015 -1.59028e-015 -13.5849 4.33087 23.9946 57.0154 6.27133 33.0068 6.70182 1.0179 -0.15318 2.78602 -14.3699 25.0451 5.26361e-007 2.96643e-007 -6.57802e-007 1.59028e-015 0 -0 -1.80167e-006 -3.33248e-006 3.214e-006 5.26361e-007 2.96643e-007 -6.57802e-007 0.0150065 -8.9129e-005 -1.96833e-006 -1.80151e-006 -3.33206e-006 3.21444e-006 5.26361e-007 2.96643e-007 -6.57802e-007 0.0189774 -0.00119272 -6.38827e-005 -1.27686e-006 -3.03531e-006 2.55672e-006 5.26361e-007 2.96643e-007 -6.57802e-007 0.012282 -0.00325212 -0.000680397 -1.80143e-006 -3.33218e-006 3.2144e-006 5.26361e-007 2.96643e-007 -6.57802e-007 1.59028e-015 0 -0 -1.80167e-006 -3.33248e-006 3.214e-006 -51.5865 -33.263 -89.6982 -7.04376 42.974 62.2822 -9.2323 32.7977 -39.7611 3.86991e-007 1.57037e-007 -8.62087e-008 51.5544 -33.2671 89.6662 7.00618 42.971 -62.2534 9.21745 32.795 39.7487 2.44819e-006 2.16001e-006 -1.99819e-006 
-0.78224 10.8825 24.23 -1.24734e-014 37.8714 -180 -0.343774 14.9419 0.00169955 -0.727366 29.8835 0.105825 -0.727366 29.8835 0.105825 -1.14548e-005 14.3579 4.75221e-006 2.36171e-007 9.84482 1.37548e-007 13.2393 4.0727 -21.4966 -54.6352 6.47105 -31.5278 -6.72644 0.93915 0.152915 -3.0748 -10.7073 -21.126 -3.18055e-015 3.18055e-015 1.59028e-015 -1.59028e-015 -6.36111e-015 -1.59028e-015 -3.18055e-015 0 -0 -3.18055e-015 3.18055e-015 1.59028e-015 -0.0146537 -8.9502e-005 -5.91554e-006 -1.59028e-015 -3.18055e-015 1.59028e-015 -3.18055e-015 3.18055e-015 1.59028e-015 -0.0187749 -0.00118015 6.07988e-005 0 3.18055e-015 -0 -3.18055e-015 3.18055e-015 1.59028e-015 -0.0122783 -0.00325188 0.000679847 -4.77083e-015 0 -0 -3.18055e-015 3.18055e-015 1.59028e-015 -1.59028e-015 -6.36111e-015 -1.59028e-015 -3.18055e-015 0 -0 -12.2453 5.26486 22.3032 53.8644 6.02807 31.0464 6.30788 0.94752 -0.153348 3.35317 -12.2699 21.9623 3.97569e-015 -3.18055e-015 -0 6.36111e-015 1.27222e-014 -0 3.97569e-015 -6.36111e-015 -1.59028e-015 3.97569e-015 -3.18055e-015 -0 0.0150086 -9.63658e-005 -4.77239e-006 -3.53113e-031 1.27222e-014 1.59028e-015 3.97569e-015 -3.18055e-015 -0 0.0189804 -0.00119097 -5.86257e-005 2.38542e-015 9.54166e-015 1.59028e-015 3.97569e-015 -3.18055e-015 -0 0.0122536 -0.00324343 -0.000676447 3.97569e-015 1.27222e-014 1.59028e-015 3.97569e-015 -3.18055e-015 -0 6.36111e-015 1.27222e-014 -0 3.97569e-015 -6.36111e-015 -1.59028e-015 -46.8862 -34.515 -84.9221 -4.51252 44.2935 57.55 -11.3292 30.9546 -35.7717 -3.18869e-007 1.6913e-006 -1.48338e-007 46.8571 -34.5159 84.8911 4.48001 44.2892 -57.5247 11.3158 30.9516 35.761 1.22536e-007 1.69222e-006 -3.24531e-006 
-0.782227 11.1583 23.5598 -1.29115e-014 40.0337 -180 -0.344146 14.7253 0.00215406 -0.72701 29.4502 0.105003 -0.727009 29.4502 0.105004 -1.57869e-005 13.1206 7.76706e-006 -1.68668e-008 8.9762 -4.09518e-008 12.7211 5.26382 -21.3179 -54.6352 6.47104 -31.5278 -6.72643 0.939168 0.152896 -4.18652 -9.54875 -19.7293 0 0 -1.59028e-015 -1.59028e-015 -9.54166e-015 -0 -3.18055e-015 3.18055e-015 -0 0 0 -1.59028e-015 -0.0145881 -8.7032e-005 3.08353e-006 3.18055e-015 0 1.59028e-015 0 0 -1.59028e-015 -0.0187529 -0.00117196 6.03695e-005 0 0 -3.18055e-015 0 0 -1.59028e-015 -0.0122582 -0.00324956 0.000681722 -4.77083e-015 -6.36111e-015 -4.77083e-015 0 0 -1.59028e-015 -1.59028e-015 -9.54166e-015 -0 -3.18055e-015 3.18055e-015 -0 -11.8241 6.3457 22.036 53.8644 6.02807 31.0464 6.30787 0.947519 -0.153339 4.41497 -10.9627 20.4937 7.95139e-016 3.18055e-015 -1.59028e-015 -5.33261e-006 -1.2438e-006 -3.29234e-006 5.91497e-007 -1.21627e-008 6.28458e-007 7.95139e-016 3.18055e-015 -1.59028e-015 0.0149981 -9.19291e-005 -4.33346e-006 5.90142e-007 -1.20722e-008 6.28459e-007 7.95139e-016 3.18055e-015 -1.59028e-015 0.0190177 -0.00118807 -5.55571e-005 9.54166e-015 -6.36111e-015 9.54166e-015 7.95139e-016 3.18055e-015 -1.59028e-015 0.0122609 -0.00324403 -0.000676612 -5.90407e-007 1.17991e-008 -6.28503e-007 7.95139e-016 3.18055e-015 -1.59028e-015 -5.33261e-006 -1.2438e-006 -3.29234e-006 5.91497e-007 -1.21627e-008 6.28458e-007 -46.8013 -32.6988 -84.1729 -5.17322 45.5504 57.958 -12.2727 30.2998 -34.8789 3.29932e-006 -5.27447e-007 2.64996e-006 46.7753 -32.6998 84.1451 5.14288 45.5468 -57.9347 12.2602 30.2968 34.8689 1.57646e-006 -2.56444e-006 -5.8642e-007 
